# 3ds Max Wavefront OBJ Exporter v0.99 - (c)2007 guruware
# File Created: 30.01.2025 23:09:24

mtllib FloatPlat.mtl

#
# object Cylinder001
#

v  0.7011 21.1719 -0.0000
v  0.6589 21.1719 -0.3213
v  0.6589 21.2104 -0.3213
v  0.7011 21.2104 -0.0000
v  0.5371 21.1719 -0.6038
v  0.5371 21.2104 -0.6038
v  0.3506 21.1719 -0.8135
v  0.3506 21.2104 -0.8135
v  0.1218 21.1719 -0.9251
v  0.1218 21.2104 -0.9251
v  -0.1218 21.1719 -0.9251
v  -0.1218 21.2104 -0.9251
v  -0.3506 21.1719 -0.8135
v  -0.3506 21.2104 -0.8135
v  -0.5371 21.1719 -0.6038
v  -0.5371 21.2104 -0.6038
v  -0.6589 21.1719 -0.3213
v  -0.6589 21.2104 -0.3213
v  -0.7011 21.1719 -0.0000
v  -0.7011 21.2104 -0.0000
v  -0.6589 21.1719 0.3213
v  -0.6589 21.2104 0.3213
v  -0.5371 21.1719 0.6038
v  -0.5371 21.2104 0.6038
v  -0.3506 21.1719 0.8135
v  -0.3506 21.2104 0.8135
v  -0.1218 21.1719 0.9251
v  -0.1218 21.2104 0.9251
v  0.1218 21.1719 0.9251
v  0.1218 21.2104 0.9251
v  0.3506 21.1719 0.8135
v  0.3506 21.2104 0.8135
v  0.5371 21.1719 0.6038
v  0.5371 21.2104 0.6038
v  0.6589 21.1719 0.3213
v  0.6589 21.2104 0.3213
v  0.6272 21.2375 -0.0000
v  0.5894 21.2375 -0.2874
v  0.9944 21.5496 -0.4849
v  1.0582 21.5496 -0.0000
v  0.4805 21.2375 -0.5401
v  0.8106 21.5496 -0.9113
v  0.3136 21.2375 -0.7277
v  0.5291 21.5496 -1.2278
v  0.1089 21.2375 -0.8275
v  0.1838 21.5496 -1.3962
v  -0.1089 21.2375 -0.8275
v  -0.1838 21.5496 -1.3962
v  -0.3136 21.2375 -0.7277
v  -0.5291 21.5496 -1.2278
v  -0.4805 21.2375 -0.5401
v  -0.8106 21.5496 -0.9113
v  -0.5894 21.2375 -0.2874
v  -0.9944 21.5496 -0.4849
v  -0.6272 21.2375 -0.0000
v  -1.0582 21.5496 -0.0000
v  -0.5894 21.2375 0.2874
v  -0.9944 21.5496 0.4849
v  -0.4805 21.2375 0.5401
v  -0.8106 21.5496 0.9113
v  -0.3136 21.2375 0.7277
v  -0.5291 21.5496 1.2278
v  -0.1089 21.2375 0.8275
v  -0.1838 21.5496 1.3962
v  0.1089 21.2375 0.8275
v  0.1838 21.5496 1.3962
v  0.3136 21.2375 0.7277
v  0.5291 21.5496 1.2278
v  0.4805 21.2375 0.5401
v  0.8106 21.5496 0.9113
v  0.5894 21.2375 0.2874
v  0.9944 21.5496 0.4849
v  2.2029 21.8484 -0.0000
v  2.0701 21.8484 -1.0094
v  1.0350 21.8484 -0.5047
v  1.1015 21.8484 -0.0000
v  1.6875 21.8484 -1.8970
v  0.8438 21.8484 -0.9485
v  1.1015 21.8484 -2.5559
v  0.5507 21.8484 -1.2779
v  0.3825 21.8484 -2.9064
v  0.1913 21.8484 -1.4532
v  -0.3825 21.8484 -2.9064
v  -0.1913 21.8484 -1.4532
v  -1.1015 21.8484 -2.5559
v  -0.5507 21.8484 -1.2779
v  -1.6875 21.8484 -1.8970
v  -0.8438 21.8484 -0.9485
v  -2.0701 21.8484 -1.0094
v  -1.0350 21.8484 -0.5047
v  -2.2029 21.8484 -0.0000
v  -1.1015 21.8484 -0.0000
v  -2.0701 21.8484 1.0094
v  -1.0350 21.8484 0.5047
v  -1.6875 21.8484 1.8970
v  -0.8438 21.8484 0.9485
v  -1.1015 21.8484 2.5559
v  -0.5507 21.8484 1.2779
v  -0.3825 21.8484 2.9064
v  -0.1913 21.8484 1.4532
v  0.3825 21.8484 2.9064
v  0.1913 21.8484 1.4532
v  1.1015 21.8484 2.5559
v  0.5507 21.8484 1.2779
v  1.6875 21.8484 1.8970
v  0.8438 21.8484 0.9485
v  2.0701 21.8484 1.0094
v  1.0350 21.8484 0.5047
v  -0.0000 21.8484 -0.0000
v  0.4792 21.1448 -0.0000
v  0.4503 21.1448 -0.2196
v  0.3671 21.1448 -0.4127
v  0.2396 21.1448 -0.5560
v  0.0832 21.1448 -0.6322
v  -0.0832 21.1448 -0.6322
v  -0.2396 21.1448 -0.5560
v  -0.3671 21.1448 -0.4127
v  -0.4503 21.1448 -0.2196
v  -0.4792 21.1448 -0.0000
v  -0.4503 21.1448 0.2196
v  -0.3671 21.1448 0.4127
v  -0.2396 21.1448 0.5560
v  -0.0832 21.1448 0.6322
v  0.0832 21.1448 0.6322
v  0.2396 21.1448 0.5560
v  0.3671 21.1448 0.4127
v  0.4503 21.1448 0.2196
v  1.7519 21.6269 -0.8542
v  1.8643 21.6269 -0.0000
v  1.4281 21.6269 -1.6054
v  0.9321 21.6269 -2.1630
v  0.3237 21.6269 -2.4597
v  -0.3237 21.6269 -2.4597
v  -0.9321 21.6269 -2.1630
v  -1.4281 21.6269 -1.6054
v  -1.7519 21.6269 -0.8542
v  -1.8643 21.6269 -0.0000
v  -1.7519 21.6269 0.8542
v  -1.4281 21.6269 1.6054
v  -0.9321 21.6269 2.1630
v  -0.3237 21.6269 2.4597
v  0.3237 21.6269 2.4597
v  0.9321 21.6269 2.1630
v  1.4281 21.6269 1.6054
v  1.7519 21.6269 0.8542
v  0.2007 20.9428 -0.0000
v  0.0006 20.9428 -0.0044
v  0.1886 20.9428 -0.0920
v  0.4792 20.9428 -0.0000
v  0.4503 20.9428 -0.2196
v  0.4503 20.9428 0.2196
v  0.3671 20.9428 0.4127
v  0.2396 20.9428 0.5560
v  0.0832 20.9428 0.6322
v  -0.0832 20.9428 0.6322
v  -0.2396 20.9428 0.5560
v  -0.3671 20.9428 0.4127
v  -0.4503 20.9428 0.2196
v  -0.4792 20.9428 -0.0000
v  -0.4503 20.9428 -0.2196
v  -0.3671 20.9428 -0.4127
v  -0.2396 20.9428 -0.5560
v  -0.0832 20.9428 -0.6322
v  0.0832 20.9428 -0.6322
v  0.2396 20.9428 -0.5560
v  0.3671 20.9428 -0.4127
v  0.1886 20.9428 0.0920
v  0.1537 20.9428 0.1728
v  0.1003 20.9428 0.2328
v  0.0348 20.9428 0.2648
v  -0.0348 20.9428 0.2648
v  -0.1003 20.9428 0.2328
v  -0.1537 20.9428 0.1728
v  -0.1886 20.9428 0.0920
v  -0.2007 20.9428 -0.0000
v  -0.1886 20.9428 -0.0920
v  -0.1537 20.9428 -0.1728
v  -0.1003 20.9428 -0.2328
v  -0.0348 20.9428 -0.2648
v  0.0348 20.9428 -0.2648
v  0.1003 20.9428 -0.2328
v  0.1537 20.9428 -0.1728
# 182 vertices

vn 0.7614 -0.6483 -0.0000
vn 0.7154 -0.6483 -0.2604
vn 0.7491 0.6038 -0.2726
vn 0.7971 0.6039 0.0000
vn 0.5832 -0.6483 -0.4894
vn 0.6106 0.6039 -0.5123
vn 0.3807 -0.6484 -0.6593
vn 0.3985 0.6039 -0.6903
vn 0.1322 -0.6483 -0.7498
vn 0.1384 0.6039 -0.7850
vn -0.1322 -0.6483 -0.7498
vn -0.1384 0.6038 -0.7850
vn -0.3807 -0.6483 -0.6594
vn -0.3986 0.6038 -0.6903
vn -0.5833 -0.6483 -0.4894
vn -0.6106 0.6038 -0.5124
vn -0.7155 -0.6482 -0.2604
vn -0.7490 0.6039 -0.2726
vn -0.7613 -0.6484 -0.0000
vn -0.7971 0.6038 -0.0000
vn -0.7154 -0.6483 0.2604
vn -0.7490 0.6039 0.2726
vn -0.5833 -0.6483 0.4894
vn -0.6106 0.6039 0.5124
vn -0.3807 -0.6483 0.6594
vn -0.3986 0.6038 0.6903
vn -0.1322 -0.6483 0.7498
vn -0.1384 0.6038 0.7850
vn 0.1322 -0.6483 0.7498
vn 0.1384 0.6038 0.7850
vn 0.3807 -0.6483 0.6594
vn 0.3986 0.6038 0.6903
vn 0.5833 -0.6483 0.4894
vn 0.6106 0.6038 0.5124
vn 0.7155 -0.6483 0.2604
vn 0.7490 0.6038 0.2726
vn 0.9952 0.0977 0.0000
vn 0.9352 0.0977 -0.3404
vn 0.1781 -0.9819 -0.0648
vn 0.1895 -0.9819 0.0000
vn 0.7624 0.0977 -0.6397
vn 0.1452 -0.9819 -0.1218
vn 0.4976 0.0977 -0.8619
vn 0.0948 -0.9819 -0.1641
vn 0.1728 0.0977 -0.9801
vn 0.0329 -0.9819 -0.1867
vn -0.1728 0.0977 -0.9801
vn -0.0329 -0.9819 -0.1867
vn -0.4976 0.0977 -0.8619
vn -0.0948 -0.9819 -0.1641
vn -0.7624 0.0977 -0.6397
vn -0.1452 -0.9819 -0.1218
vn -0.9352 0.0977 -0.3404
vn -0.1781 -0.9819 -0.0648
vn -0.9952 0.0977 -0.0000
vn -0.1895 -0.9819 -0.0000
vn -0.9352 0.0977 0.3404
vn -0.1781 -0.9819 0.0648
vn -0.7624 0.0977 0.6397
vn -0.1452 -0.9819 0.1218
vn -0.4976 0.0977 0.8619
vn -0.0948 -0.9819 0.1641
vn -0.1728 0.0977 0.9801
vn -0.0329 -0.9819 0.1867
vn 0.1728 0.0977 0.9801
vn 0.0329 -0.9819 0.1867
vn 0.4976 0.0977 0.8619
vn 0.0948 -0.9819 0.1641
vn 0.7624 0.0977 0.6397
vn 0.1452 -0.9819 0.1218
vn 0.9352 0.0977 0.3404
vn 0.1781 -0.9819 0.0648
vn 0.9887 0.1501 0.0000
vn 0.9290 0.1501 -0.3381
vn 0.0000 1.0000 -0.0000
vn 0.7574 0.1501 -0.6355
vn 0.4943 0.1501 -0.8562
vn 0.1717 0.1501 -0.9737
vn -0.1717 0.1501 -0.9737
vn -0.4943 0.1501 -0.8562
vn -0.7574 0.1501 -0.6355
vn -0.9290 0.1501 -0.3381
vn -0.9887 0.1501 -0.0000
vn -0.9290 0.1501 0.3381
vn -0.7574 0.1501 0.6355
vn -0.4943 0.1501 0.8562
vn -0.1717 0.1501 0.9737
vn 0.1717 0.1501 0.9737
vn 0.4943 0.1501 0.8562
vn 0.7574 0.1501 0.6355
vn 0.9290 0.1501 0.3381
vn 0.6898 -0.7240 0.0000
vn 0.6483 -0.7239 -0.2360
vn 0.5284 -0.7240 -0.4434
vn 0.3449 -0.7240 -0.5974
vn 0.1198 -0.7240 -0.6794
vn -0.1198 -0.7240 -0.6794
vn -0.3449 -0.7240 -0.5974
vn -0.5284 -0.7240 -0.4434
vn -0.6482 -0.7240 -0.2359
vn -0.6898 -0.7240 -0.0000
vn -0.6482 -0.7240 0.2359
vn -0.5285 -0.7240 0.4434
vn -0.3449 -0.7240 0.5974
vn -0.1198 -0.7240 0.6794
vn 0.1198 -0.7240 0.6794
vn 0.3449 -0.7240 0.5974
vn 0.5284 -0.7240 0.4434
vn 0.6482 -0.7240 0.2359
vn 0.1929 -0.9787 -0.0702
vn 0.2053 -0.9787 0.0000
vn 0.1573 -0.9787 -0.1320
vn 0.1027 -0.9787 -0.1778
vn 0.0357 -0.9787 -0.2022
vn -0.0357 -0.9787 -0.2022
vn -0.1027 -0.9787 -0.1778
vn -0.1573 -0.9787 -0.1320
vn -0.1929 -0.9787 -0.0702
vn -0.2053 -0.9787 -0.0000
vn -0.1929 -0.9787 0.0702
vn -0.1573 -0.9787 0.1320
vn -0.1027 -0.9787 0.1778
vn -0.0357 -0.9787 0.2022
vn 0.0357 -0.9787 0.2022
vn 0.1027 -0.9787 0.1778
vn 0.1573 -0.9787 0.1320
vn 0.1929 -0.9787 0.0702
vn 0.0000 -1.0000 -0.0000
vn 0.9397 0.0000 -0.3420
vn 1.0000 0.0000 -0.0000
vn 0.9397 0.0000 0.3420
vn 0.7660 0.0000 0.6428
vn 0.5000 -0.0000 0.8660
vn 0.1736 -0.0000 0.9848
vn -0.1736 -0.0000 0.9848
vn -0.5000 -0.0000 0.8660
vn -0.7660 -0.0000 0.6428
vn -0.9397 -0.0000 0.3420
vn -1.0000 0.0000 -0.0000
vn -0.9397 0.0000 -0.3420
vn -0.7660 -0.0000 -0.6428
vn -0.5000 -0.0000 -0.8660
vn -0.1736 0.0000 -0.9848
vn 0.1736 0.0000 -0.9848
vn 0.5000 -0.0000 -0.8660
vn 0.7660 0.0000 -0.6428
# 146 vertex normals

vt 0.7500 0.8462 1.0000
vt 0.8056 0.8462 1.0000
vt 0.8056 0.9231 1.0000
vt 0.7500 0.9231 1.0000
vt 0.8611 0.8462 1.0000
vt 0.8611 0.9231 1.0000
vt 0.9167 0.8462 1.0000
vt 0.9167 0.9231 1.0000
vt 0.9722 0.8462 1.0000
vt 0.9722 0.9231 1.0000
vt -0.0278 0.8462 1.0000
vt 0.0278 0.8462 1.0000
vt 0.0278 0.9231 1.0000
vt -0.0278 0.9231 1.0000
vt 0.0833 0.8462 1.0000
vt 0.0833 0.9231 1.0000
vt 0.1389 0.8462 1.0000
vt 0.1389 0.9231 1.0000
vt 0.1944 0.8462 1.0000
vt 0.1944 0.9231 1.0000
vt 0.2500 0.8462 1.0000
vt 0.2500 0.9231 1.0000
vt 0.3056 0.8462 1.0000
vt 0.3056 0.9231 1.0000
vt 0.3611 0.8462 1.0000
vt 0.3611 0.9231 1.0000
vt 0.4167 0.8462 1.0000
vt 0.4167 0.9231 1.0000
vt 0.4722 0.8462 1.0000
vt 0.4722 0.9231 1.0000
vt 0.5278 0.8462 1.0000
vt 0.5278 0.9231 1.0000
vt 0.5833 0.8462 1.0000
vt 0.5833 0.9231 1.0000
vt 0.6389 0.8462 1.0000
vt 0.6389 0.9231 1.0000
vt 0.6944 0.8462 1.0000
vt 0.6944 0.9231 1.0000
vt 0.8056 1.0000 1.0000
vt 0.7500 1.0000 1.0000
vt 0.8611 1.0000 1.0000
vt 0.9167 1.0000 1.0000
vt 0.9722 1.0000 1.0000
vt 0.0278 1.0000 1.0000
vt -0.0278 1.0000 1.0000
vt 0.0833 1.0000 1.0000
vt 0.1389 1.0000 1.0000
vt 0.1944 1.0000 1.0000
vt 0.2500 1.0000 1.0000
vt 0.3056 1.0000 1.0000
vt 0.3611 1.0000 1.0000
vt 0.4167 1.0000 1.0000
vt 0.4722 1.0000 1.0000
vt 0.5278 1.0000 1.0000
vt 0.5833 1.0000 1.0000
vt 0.6389 1.0000 1.0000
vt 0.6944 1.0000 1.0000
vt 0.8056 1.0000 0.5000
vt 0.7500 1.0000 0.5000
vt 0.8611 1.0000 0.5000
vt 0.9167 1.0000 0.5000
vt 0.9722 1.0000 0.5000
vt 0.0278 1.0000 0.5000
vt -0.0278 1.0000 0.5000
vt 0.0833 1.0000 0.5000
vt 0.1389 1.0000 0.5000
vt 0.1944 1.0000 0.5000
vt 0.2500 1.0000 0.5000
vt 0.3056 1.0000 0.5000
vt 0.3611 1.0000 0.5000
vt 0.4167 1.0000 0.5000
vt 0.4722 1.0000 0.5000
vt 0.5278 1.0000 0.5000
vt 0.5833 1.0000 0.5000
vt 0.6389 1.0000 0.5000
vt 0.6944 1.0000 0.5000
vt 0.5000 1.0000 0.0000
vt 0.2180 0.8462 1.0000
# 78 texture coords

o Cylinder001
g Cylinder001
usemtl PlatformMid_wire_088144225
s 8
f 1/1/1 2/2/2 3/3/3 4/4/4 
f 2/2/2 5/5/5 6/6/6 3/3/3 
f 5/5/5 7/7/7 8/8/8 6/6/6 
f 7/7/7 9/9/9 10/10/10 8/8/8 
f 9/11/9 11/12/11 12/13/12 10/14/10 
f 11/12/11 13/15/13 14/16/14 12/13/12 
f 13/15/13 15/17/15 16/18/16 14/16/14 
f 15/17/15 17/19/17 18/20/18 16/18/16 
f 17/19/17 19/21/19 20/22/20 18/20/18 
f 19/21/19 21/23/21 22/24/22 20/22/20 
f 21/23/21 23/25/23 24/26/24 22/24/22 
f 23/25/23 25/27/25 26/28/26 24/26/24 
f 25/27/25 27/29/27 28/30/28 26/28/26 
f 27/29/27 29/31/29 30/32/30 28/30/28 
f 29/31/29 31/33/31 32/34/32 30/32/30 
f 31/33/31 33/35/33 34/36/34 32/34/32 
f 33/35/33 35/37/35 36/38/36 34/36/34 
f 35/37/35 1/1/1 4/4/4 36/38/36 
f 37/4/37 38/3/38 39/39/39 40/40/40 
f 38/3/38 41/6/41 42/41/42 39/39/39 
f 41/6/41 43/8/43 44/42/44 42/41/42 
f 43/8/43 45/10/45 46/43/46 44/42/44 
f 45/14/45 47/13/47 48/44/48 46/45/46 
f 47/13/47 49/16/49 50/46/50 48/44/48 
f 49/16/49 51/18/51 52/47/52 50/46/50 
f 51/18/51 53/20/53 54/48/54 52/47/52 
f 53/20/53 55/22/55 56/49/56 54/48/54 
f 55/22/55 57/24/57 58/50/58 56/49/56 
f 57/24/57 59/26/59 60/51/60 58/50/58 
f 59/26/59 61/28/61 62/52/62 60/51/60 
f 61/28/61 63/30/63 64/53/64 62/52/62 
f 63/30/63 65/32/65 66/54/66 64/53/64 
f 65/32/65 67/34/67 68/55/68 66/54/66 
f 67/34/67 69/36/69 70/56/70 68/55/68 
f 69/36/69 71/38/71 72/57/72 70/56/70 
f 71/38/71 37/4/37 40/40/40 72/57/72 
s 1
f 73/40/73 74/39/74 75/58/75 76/59/75 
f 74/39/74 77/41/76 78/60/75 75/58/75 
f 77/41/76 79/42/77 80/61/75 78/60/75 
f 79/42/77 81/43/78 82/62/75 80/61/75 
f 81/45/78 83/44/79 84/63/75 82/64/75 
f 83/44/79 85/46/80 86/65/75 84/63/75 
f 85/46/80 87/47/81 88/66/75 86/65/75 
f 87/47/81 89/48/82 90/67/75 88/66/75 
f 89/48/82 91/49/83 92/68/75 90/67/75 
f 91/49/83 93/50/84 94/69/75 92/68/75 
f 93/50/84 95/51/85 96/70/75 94/69/75 
f 95/51/85 97/52/86 98/71/75 96/70/75 
f 97/52/86 99/53/87 100/72/75 98/71/75 
f 99/53/87 101/54/88 102/73/75 100/72/75 
f 101/54/88 103/55/89 104/74/75 102/73/75 
f 103/55/89 105/56/90 106/75/75 104/74/75 
f 105/56/90 107/57/91 108/76/75 106/75/75 
f 107/57/91 73/40/73 76/59/75 108/76/75 
f 109/77/75 76/59/75 75/58/75 
f 109/77/75 75/58/75 78/60/75 
f 109/77/75 78/60/75 80/61/75 
f 109/77/75 80/61/75 82/62/75 
f 109/77/75 82/64/75 84/63/75 
f 109/77/75 84/63/75 86/65/75 
f 109/77/75 86/65/75 88/66/75 
f 109/77/75 88/66/75 90/67/75 
f 109/77/75 90/67/75 92/68/75 
f 109/77/75 92/68/75 94/69/75 
f 109/77/75 94/69/75 96/70/75 
f 109/77/75 96/70/75 98/71/75 
f 109/77/75 98/71/75 100/72/75 
f 109/77/75 100/72/75 102/73/75 
f 109/77/75 102/73/75 104/74/75 
f 109/77/75 104/74/75 106/75/75 
f 109/77/75 106/75/75 108/76/75 
f 109/77/75 108/76/75 76/59/75 
f 110/1/92 111/2/93 2/2/2 1/1/1 
f 111/2/93 112/5/94 5/5/5 2/2/2 
f 112/5/94 113/7/95 7/7/7 5/5/5 
f 113/7/95 114/9/96 9/9/9 7/7/7 
f 114/11/96 115/12/97 11/12/11 9/11/9 
f 115/12/97 116/15/98 13/15/13 11/12/11 
f 116/15/98 117/17/99 15/17/15 13/15/13 
f 117/17/99 118/19/100 17/19/17 15/17/15 
f 118/19/100 119/21/101 19/21/19 17/19/17 
f 119/21/101 120/23/102 21/23/21 19/21/19 
f 120/23/102 121/25/103 23/25/23 21/23/21 
f 121/25/103 122/27/104 25/27/25 23/25/23 
f 122/27/104 123/29/105 27/29/27 25/27/25 
f 123/29/105 124/31/106 29/31/29 27/29/27 
f 124/31/106 125/33/107 31/33/31 29/31/29 
f 125/33/107 126/35/108 33/35/33 31/33/31 
f 126/35/108 127/37/109 35/37/35 33/35/33 
f 127/37/109 110/1/92 1/1/1 35/37/35 
f 38/3/38 37/4/37 4/4/4 3/3/3 
f 37/4/37 71/38/71 36/38/36 4/4/4 
f 71/38/71 69/36/69 34/36/34 36/38/36 
f 69/36/69 67/34/67 32/34/32 34/36/34 
f 67/34/67 65/32/65 30/32/30 32/34/32 
f 65/32/65 63/30/63 28/30/28 30/32/30 
f 63/30/63 61/28/61 26/28/26 28/30/28 
f 61/28/61 59/26/59 24/26/24 26/28/26 
f 59/26/59 57/24/57 22/24/22 24/26/24 
f 57/24/57 55/22/55 20/22/20 22/24/22 
f 55/22/55 53/20/53 18/20/18 20/22/20 
f 53/20/53 51/18/51 16/18/16 18/20/18 
f 51/18/51 49/16/49 14/16/14 16/18/16 
f 49/16/49 47/13/47 12/13/12 14/16/14 
f 47/13/47 45/14/45 10/14/10 12/13/12 
f 45/10/45 43/8/43 8/8/8 10/10/10 
f 43/8/43 41/6/41 6/6/6 8/8/8 
f 41/6/41 38/3/38 3/3/3 6/6/6 
s 2
f 40/40/40 39/39/39 128/39/110 129/40/111 
f 39/39/39 42/41/42 130/41/112 128/39/110 
f 42/41/42 44/42/44 131/42/113 130/41/112 
f 44/42/44 46/43/46 132/43/114 131/42/113 
f 46/45/46 48/44/48 133/44/115 132/45/114 
f 48/44/48 50/46/50 134/46/116 133/44/115 
f 50/46/50 52/47/52 135/47/117 134/46/116 
f 52/47/52 54/48/54 136/48/118 135/47/117 
f 54/48/54 56/49/56 137/49/119 136/48/118 
f 56/49/56 58/50/58 138/50/120 137/49/119 
f 58/50/58 60/51/60 139/51/121 138/50/120 
f 60/51/60 62/52/62 140/52/122 139/51/121 
f 62/52/62 64/53/64 141/53/123 140/52/122 
f 64/53/64 66/54/66 142/54/124 141/53/123 
f 66/54/66 68/55/68 143/55/125 142/54/124 
f 68/55/68 70/56/70 144/56/126 143/55/125 
f 70/56/70 72/57/72 145/57/127 144/56/126 
f 72/57/72 40/40/40 129/40/111 145/57/127 
f 128/39/110 74/39/74 73/40/73 129/40/111 
f 130/41/112 77/41/76 74/39/74 128/39/110 
f 131/42/113 79/42/77 77/41/76 130/41/112 
f 132/43/114 81/43/78 79/42/77 131/42/113 
f 133/44/115 83/44/79 81/45/78 132/45/114 
f 134/46/116 85/46/80 83/44/79 133/44/115 
f 135/47/117 87/47/81 85/46/80 134/46/116 
f 136/48/118 89/48/82 87/47/81 135/47/117 
f 137/49/119 91/49/83 89/48/82 136/48/118 
f 138/50/120 93/50/84 91/49/83 137/49/119 
f 139/51/121 95/51/85 93/50/84 138/50/120 
f 140/52/122 97/52/86 95/51/85 139/51/121 
f 141/53/123 99/53/87 97/52/86 140/52/122 
f 142/54/124 101/54/88 99/53/87 141/53/123 
f 143/55/125 103/55/89 101/54/88 142/54/124 
f 144/56/126 105/56/90 103/55/89 143/55/125 
f 145/57/127 107/57/91 105/56/90 144/56/126 
f 129/40/111 73/40/73 107/57/91 145/57/127 
s 4
f 146/1/128 147/78/128 148/2/128 
s 2
f 111/2/129 110/1/130 149/1/130 150/2/129 
f 110/1/130 127/37/131 151/37/131 149/1/130 
f 127/37/131 126/35/132 152/35/132 151/37/131 
f 126/35/132 125/33/133 153/33/133 152/35/132 
f 125/33/133 124/31/134 154/31/134 153/33/133 
f 124/31/134 123/29/135 155/29/135 154/31/134 
f 123/29/135 122/27/136 156/27/136 155/29/135 
f 122/27/136 121/25/137 157/25/137 156/27/136 
f 121/25/137 120/23/138 158/23/138 157/25/137 
f 120/23/138 119/21/139 159/21/139 158/23/138 
f 119/21/139 118/19/140 160/19/140 159/21/139 
f 118/19/140 117/17/141 161/17/141 160/19/140 
f 117/17/141 116/15/142 162/15/142 161/17/141 
f 116/15/142 115/12/143 163/12/143 162/15/142 
f 115/12/143 114/11/144 164/11/144 163/12/143 
f 114/11/144 113/7/145 165/7/145 164/11/144 
f 113/7/145 112/5/146 166/5/146 165/7/145 
f 112/5/146 111/2/129 150/2/129 166/5/146 
s 4
f 150/2/128 149/1/128 146/1/128 148/2/128 
f 149/1/128 151/37/128 167/37/128 146/1/128 
f 151/37/128 152/35/128 168/35/128 167/37/128 
f 152/35/128 153/33/128 169/33/128 168/35/128 
f 153/33/128 154/31/128 170/31/128 169/33/128 
f 154/31/128 155/29/128 171/29/128 170/31/128 
f 155/29/128 156/27/128 172/27/128 171/29/128 
f 156/27/128 157/25/128 173/25/128 172/27/128 
f 157/25/128 158/23/128 174/23/128 173/25/128 
f 158/23/128 159/21/128 175/21/128 174/23/128 
f 159/21/128 160/19/128 176/19/128 175/21/128 
f 160/19/128 161/17/128 177/17/128 176/19/128 
f 161/17/128 162/15/128 178/15/128 177/17/128 
f 162/15/128 163/12/128 179/12/128 178/15/128 
f 163/12/128 164/11/128 180/11/128 179/12/128 
f 164/11/128 165/7/128 181/7/128 180/11/128 
f 165/7/128 166/5/128 182/5/128 181/7/128 
f 166/5/128 150/2/128 148/2/128 182/5/128 
f 171/29/128 172/27/128 147/78/128 
f 146/1/128 167/37/128 147/78/128 
f 175/21/128 176/19/128 147/78/128 
f 147/78/128 181/7/128 182/5/128 
f 173/25/128 174/23/128 147/78/128 
f 169/33/128 170/31/128 147/78/128 
f 178/15/128 179/12/128 147/78/128 
f 168/35/128 169/33/128 147/78/128 
f 177/17/128 178/15/128 147/78/128 
f 167/37/128 168/35/128 147/78/128 
f 176/19/128 177/17/128 147/78/128 
f 147/78/128 182/5/128 148/2/128 
f 174/23/128 175/21/128 147/78/128 
f 172/27/128 173/25/128 147/78/128 
f 147/78/128 180/11/128 181/7/128 
f 170/31/128 171/29/128 147/78/128 
f 179/12/128 180/11/128 147/78/128 
# 162 polygons - 36 triangles

